:FULLY-SPECIFIED
:FORCE-ALL-JOINTS-BE-3DOF
:DEGREES
259
root 9.71038 16.7182 -0.282263 8.25177 -7.54074 1.04112
lfemur -31.7308 9.04226 -27.4202
ltibia 36.0312 0 0
lfoot -12.2797 6.87945 0
ltoes -0.172547 0 0
rfemur -8.05715 -1.83185 15.9294
rtibia 61.1487 0 0
rfoot 5.45119 -8.96497 0
rtoes -15.2345 0 0
lowerback -5.66687 1.15268 -2.40447
upperback -1.95228 1.64242 1.4682
thorax 1.05435 0.829121 2.9658
lowerneck -20.4285 -4.80215 -12.8317
upperneck 18.713 -5.79014 13.2294
head 10.1199 -2.12888 6.02016
lclavicle -3.19546e-14 -2.0276e-14 0
lhumerus -36.703 -8.59092 89.2943
lradius 22.6391 0 0
lwrist -2.00751 0 0
lhand -9.41773 -22.3452 0
lfingers 7.12502 0 0
lthumb 16.5443 6.96948 0
rclavicle -3.19546e-14 -2.0276e-14 0
rhumerus -45.9701 9.67144 -86.016
rradius 39.7113 0 0
rwrist -21.7486 0 0
rhand -31.9309 -24.6003 0
rfingers 7.12502 0 0
rthumb -5.18201 -54.5169 0
260
root 9.73034 16.7423 -0.153324 8.10892 -7.38648 1.08245
lfemur -30.7713 8.93773 -27.4853
ltibia 35.5005 0 0
lfoot -12.5613 6.8251 0
ltoes -0.298637 0 0
rfemur -9.25488 -1.89996 16.0503
rtibia 62.0107 0 0
rfoot 3.84057 -9.35036 0
rtoes -15.2255 0 0
lowerback -5.6197 0.99751 -2.40425
upperback -1.87289 1.43385 1.52653
thorax 1.12359 0.722762 3.01295
lowerneck -20.5548 -4.73764 -12.6734
upperneck 18.9222 -5.70265 13.0212
head 10.1933 -2.09626 5.93609
lclavicle -2.27442e-14 -1.05356e-14 0
lhumerus -35.8548 -9.21813 89.3451
lradius 22.8045 0 0
lwrist -1.59359 0 0
lhand -9.85621 -22.6391 0
lfingers 7.12502 0 0
lthumb 16.1219 6.70775 0
rclavicle -2.27442e-14 -1.05356e-14 0
rhumerus -45.9244 9.4748 -85.7256
rradius 39.9248 0 0
rwrist -21.7356 0 0
rhand -31.885 -24.4864 0
rfingers 7.12502 0 0
rthumb -5.1377 -54.404 0
261
root 9.7503 16.7665 -0.0243847 7.96608 -7.23222 1.12379
lfemur -29.8118 8.8332 -27.5503
ltibia 34.9697 0 0
lfoot -12.8429 6.77074 0
ltoes -0.424726 0 0
rfemur -10.4526 -1.96807 16.1711
rtibia 62.8728 0 0
rfoot 2.22994 -9.73575 0
rtoes -15.2164 0 0
lowerback -5.57254 0.842341 -2.40404
upperback -1.79349 1.22527 1.58486
thorax 1.19283 0.616402 3.0601
lowerneck -20.681 -4.67313 -12.5151
upperneck 19.1313 -5.61516 12.813
head 10.2667 -2.06363 5.85202
lclavicle -1.35339e-14 -7.951e-16 0
lhumerus -35.0066 -9.84535 89.3959
lradius 22.97 0 0
lwrist -1.17967 0 0
lhand -10.2947 -22.9331 0
lfingers 7.12502 0 0
lthumb 15.6996 6.44602 0
rclavicle -1.35339e-14 -7.951e-16 0
rhumerus -45.8787 9.27816 -85.4352
rradius 40.1383 0 0
rwrist -21.7226 0 0
rhand -31.8391 -24.3725 0
rfingers 7.12502 0 0
rthumb -5.09339 -54.2912 0
262
root 9.77027 16.7906 0.104554 7.82323 -7.07797 1.16513
lfemur -28.8524 8.72866 -27.6153
ltibia 34.4389 0 0
lfoot -13.1244 6.71639 0
ltoes -0.550816 0 0
rfemur -11.6503 -2.03618 16.292
rtibia 63.7348 0 0
rfoot 0.61932 -10.1211 0
rtoes -15.2074 0 0
lowerback -5.52537 0.687171 -2.40382
upperback -1.71409 1.0167 1.64318
thorax 1.26206 0.510042 3.10724
lowerneck -20.8073 -4.60862 -12.3568
upperneck 19.3405 -5.52768 12.6048
head 10.3401 -2.031 5.76794
lclavicle -4.32355e-15 8.94535e-15 0
lhumerus -34.1585 -10.4726 89.4467
lradius 23.1354 0 0
lwrist -0.765747 0 0
lhand -10.7332 -23.227 0
lfingers 7.12502 0 0
lthumb 15.2772 6.18429 0
rclavicle -4.32355e-15 8.94535e-15 0
rhumerus -45.833 9.08152 -85.1448
rradius 40.3518 0 0
rwrist -21.7096 0 0
rhand -31.7932 -24.2586 0
rfingers 7.12502 0 0
rthumb -5.04908 -54.1783 0
263
root 9.79023 16.8148 0.233494 7.68038 -6.92371 1.20646
lfemur -27.8929 8.62413 -27.6804
ltibia 33.9082 0 0
lfoot -13.406 6.66203 0
ltoes -0.676906 0 0
rfemur -12.8481 -2.10429 16.4129
rtibia 64.5968 0 0
rfoot -0.991303 -10.5065 0
rtoes -15.1984 0 0
lowerback -5.4782 0.532001 -2.4036
upperback -1.6347 0.808123 1.70151
thorax 1.3313 0.403683 3.15439
lowerneck -20.9336 -4.54412 -12.1985
upperneck 19.5496 -5.44019 12.3966
head 10.4136 -1.99838 5.68387
lclavicle 4.8868e-15 1.86858e-14 0
lhumerus -33.3103 -11.0998 89.4975
lradius 23.3008 0 0
lwrist -0.351826 0 0
lhand -11.1716 -23.5209 0
lfingers 7.12502 0 0
lthumb 14.8549 5.92255 0
rclavicle 4.8868e-15 1.86858e-14 0
rhumerus -45.7873 8.88489 -84.8544
rradius 40.5653 0 0
rwrist -21.6966 0 0
rhand -31.7473 -24.1447 0
rfingers 7.12502 0 0
rthumb -5.00476 -54.0655 0
264
root 9.81019 16.8389 0.362433 7.53754 -6.76945 1.24779
lfemur -26.9334 8.5196 -27.7454
ltibia 33.3774 0 0
lfoot -13.6876 6.60768 0
ltoes -0.802995 0 0
rfemur -14.0458 -2.1724 16.5337
rtibia 65.4589 0 0
rfoot -2.60193 -10.8919 0
rtoes -15.1893 0 0
lowerback -5.43104 0.376832 -2.40339
upperback -1.55531 0.599548 1.75984
thorax 1.40054 0.297323 3.20154
lowerneck -21.0598 -4.47961 -12.0402
upperneck 19.7587 -5.3527 12.1884
head 10.487 -1.96575 5.5998
lclavicle 1.40971e-14 2.84262e-14 0
lhumerus -32.4621 -11.727 89.5483
lradius 23.4663 0 0
lwrist 0.062095 0 0
lhand -11.6101 -23.8149 0
lfingers 7.12502 0 0
lthumb 14.4325 5.66082 0
rclavicle 1.40971e-14 2.84262e-14 0
rhumerus -45.7416 8.68825 -84.564
rradius 40.7788 0 0
rwrist -21.6836 0 0
rhand -31.7014 -24.0308 0
rfingers 7.12502 0 0
rthumb -4.96045 -53.9526 0
265
root 9.83015 16.8631 0.491372 7.39469 -6.61519 1.28913
lfemur -25.9739 8.41507 -27.8105
ltibia 32.8467 0 0
lfoot -13.9692 6.55332 0
ltoes -0.929085 0 0
rfemur -15.2435 -2.24051 16.6546
rtibia 66.3209 0 0
rfoot -4.21255 -11.2773 0
rtoes -15.1803 0 0
lowerback -5.38387 0.221662 -2.40317
upperback -1.47591 0.390974 1.81817
thorax 1.46978 0.190964 3.24869
lowerneck -21.1861 -4.4151 -11.8819
upperneck 19.9679 -5.26521 11.9802
head 10.5604 -1.93313 5.51573
lclavicle 2.33075e-14 3.81667e-14 0
lhumerus -31.6139 -12.3542 89.5991
lradius 23.6317 0 0
lwrist 0.476016 0 0
lhand -12.0486 -24.1088 0
lfingers 7.12502 0 0
lthumb 14.0102 5.39909 0
rclavicle 2.33075e-14 3.81667e-14 0
rhumerus -45.6959 8.49161 -84.2736
rradius 40.9923 0 0
rwrist -21.6706 0 0
rhand -31.6555 -23.9169 0
rfingers 7.12502 0 0
rthumb -4.91614 -53.8398 0
266
root 9.84732 16.872 0.61742 7.20053 -6.42513 1.37719
lfemur -24.9819 8.21061 -27.9032
ltibia 32.3559 0 0
lfoot -14.3541 6.65058 0
ltoes -0.932068 0 0
rfemur -16.2872 -2.13338 16.7459
rtibia 66.3009 0 0
rfoot -5.85209 -11.2229 0
rtoes -15.0645 0 0
lowerback -5.3526 0.061686 -2.44733
upperback -1.33954 0.178954 1.83921
thorax 1.6094 0.0805398 3.28099
lowerneck -21.3124 -4.32885 -11.8504
upperneck 20.1549 -5.15066 11.9623
head 10.6348 -1.87732 5.52996
lclavicle 2.10215e-14 2.63721e-14 0
lhumerus -30.5861 -12.6635 89.3935
lradius 23.688 0 0
lwrist 0.55767 0 0
lhand -12.1644 -24.1419 0
lfingers 7.12502 0 0
lthumb 13.8986 5.37351 0
rclavicle 2.10215e-14 2.63721e-14 0
rhumerus -45.6481 8.39117 -84.0831
rradius 41.1784 0 0
rwrist -21.8109 0 0
rhand -31.2557 -23.6565 0
rfingers 7.12502 0 0
rthumb -4.53009 -53.5863 0
267
root 9.86449 16.881 0.743468 7.00637 -6.23508 1.46524
lfemur -23.9899 8.00615 -27.9959
ltibia 31.8651 0 0
lfoot -14.739 6.74784 0
ltoes -0.935051 0 0
rfemur -17.3308 -2.02626 16.8373
rtibia 66.2808 0 0
rfoot -7.49163 -11.1684 0
rtoes -14.9486 0 0
lowerback -5.32132 -0.09829 -2.49149
upperback -1.20316 -0.0330653 1.86024
thorax 1.74902 -0.0298843 3.31329
lowerneck -21.4387 -4.2426 -11.8188
upperneck 20.3418 -5.03611 11.9445
head 10.7092 -1.82152 5.54418
lclavicle 1.87355e-14 1.45776e-14 0
lhumerus -29.5584 -12.9727 89.1878
lradius 23.7443 0 0
lwrist 0.639325 0 0
lhand -12.2802 -24.175 0
lfingers 7.12502 0 0
lthumb 13.787 5.34793 0
rclavicle 1.87355e-14 1.45776e-14 0
rhumerus -45.6003 8.29073 -83.8926
rradius 41.3645 0 0
rwrist -21.9512 0 0
rhand -30.856 -23.3962 0
rfingers 7.12502 0 0
rthumb -4.14404 -53.3328 0
